<?xml version="1.0" standalone="no"?>
<!DOCTYPE svg PUBLIC "-//W3C//DTD SVG 20010904//EN"
 "http://www.w3.org/TR/2001/REC-SVG-20010904/DTD/svg10.dtd">
<svg version="1.0" xmlns="http://www.w3.org/2000/svg"
 width="1280.000000pt" height="1280.000000pt" viewBox="0 0 1280.000000 1280.000000"
 preserveAspectRatio="xMidYMid meet">

<g transform="translate(0.000000,1280.000000) scale(0.100000,-0.100000)"
fill="#000000" stroke="none">
<path d="M6361 12258 c-4 -13 -16 -90 -25 -173 -23 -205 -55 -462 -62 -507
l-6 -38 -57 0 c-164 0 -611 -52 -811 -94 -247 -53 -301 -66 -460 -115 -329
-100 -519 -175 -815 -321 -553 -272 -1040 -633 -1469 -1089 -667 -709 -1117
-1586 -1305 -2541 -44 -222 -91 -632 -91 -792 0 -78 19 -68 -190 -93 -348 -41
-532 -65 -540 -70 -14 -9 -12 -51 3 -62 6 -6 73 -18 147 -26 74 -9 235 -29
357 -43 l223 -27 0 -66 c0 -90 25 -366 49 -541 115 -830 444 -1638 944 -2320
69 -94 158 -207 208 -265 15 -16 48 -55 74 -85 82 -95 346 -359 460 -459 748
-659 1652 -1077 2650 -1225 102 -16 334 -38 537 -52 102 -7 88 23 118 -239 62
-519 61 -516 108 -501 27 9 27 9 52 221 38 323 61 509 63 512 2 1 81 7 177 13
153 10 257 21 551 60 107 15 393 78 544 121 364 104 696 234 985 387 610 321
1076 694 1555 1242 118 136 306 394 427 589 456 731 712 1536 769 2423 l12
185 221 27 c122 14 282 34 356 43 74 8 141 20 148 26 14 11 16 53 2 62 -8 5
-192 29 -540 70 -211 25 -186 6 -194 148 -33 605 -158 1166 -381 1717 -65 161
-229 491 -320 645 -85 143 -261 406 -334 499 -25 32 -66 83 -91 115 -273 346
-670 719 -1050 987 -382 269 -845 507 -1280 656 -460 158 -939 251 -1417 274
-84 4 -143 11 -143 17 0 6 -9 80 -19 166 -11 86 -30 239 -42 341 -12 102 -26
193 -31 203 -13 25 -57 22 -67 -5z m78 -723 c41 -335 99 -818 172 -1425 22
-184 60 -499 84 -700 24 -201 62 -516 84 -700 105 -877 134 -1119 155 -1295
13 -104 22 -191 21 -193 -1 -1 -40 18 -86 42 -46 25 -115 54 -154 67 -38 12
-71 22 -71 23 -1 0 -18 118 -39 261 -20 143 -56 400 -80 570 -24 171 -54 384
-66 474 -22 160 -33 191 -64 191 -28 0 -43 -46 -59 -180 -16 -129 -60 -449
-141 -1046 l-37 -271 -52 -13 c-50 -13 -179 -71 -243 -111 -18 -12 -33 -17
-33 -14 0 4 13 116 30 249 28 226 64 527 160 1321 22 182 60 497 85 700 24
204 63 523 85 710 128 1068 203 1675 206 1672 2 -2 21 -151 43 -332z m-182
-107 c-3 -18 -11 -82 -17 -143 -21 -198 -19 -190 -70 -192 -229 -13 -544 -54
-750 -99 -63 -13 -126 -27 -140 -30 -145 -29 -489 -144 -709 -237 -1394 -588
-2431 -1834 -2756 -3312 -57 -260 -87 -472 -101 -718 -4 -65 -10 -119 -13
-121 -13 -8 -353 -47 -358 -42 -19 18 40 580 83 801 200 1018 666 1904 1384
2625 188 190 279 271 470 421 473 370 980 643 1555 834 153 51 504 139 675
169 194 34 535 71 694 75 l58 1 -5 -32z m798 -9 c947 -117 1888 -535 2625
-1165 968 -828 1585 -1972 1739 -3224 21 -169 45 -489 37 -497 -2 -3 -86 6
-185 18 l-181 22 0 51 c0 167 -49 543 -101 776 -202 907 -626 1679 -1284 2335
-221 221 -405 373 -660 547 -661 450 -1410 721 -2189 792 -198 19 -243 36
-277 109 -46 102 -11 202 86 249 47 22 126 20 390 -13z m-849 -431 c-3 -13
-17 -117 -30 -233 -14 -115 -45 -376 -70 -580 -25 -203 -63 -523 -86 -710 -22
-187 -61 -506 -86 -710 -83 -682 -123 -1018 -159 -1320 l-36 -300 -47 -45 -47
-46 -235 -28 c-129 -15 -323 -38 -430 -51 -107 -13 -211 -25 -230 -27 l-35 -3
-5 70 c-5 63 -7 70 -27 73 -19 3 -23 10 -23 41 0 26 7 44 21 57 12 10 33 42
47 69 25 48 27 60 32 245 l5 195 57 120 c96 205 108 236 108 281 l0 44 182 0
c203 0 246 11 281 69 39 66 8 169 -59 197 -18 8 -60 14 -92 14 l-59 0 -7 97
c-19 251 -127 487 -296 647 -175 165 -372 252 -617 272 l-83 7 0 58 0 59 31 0
c17 0 39 5 50 10 25 14 25 56 0 70 -12 6 -100 10 -216 10 -116 0 -204 -4 -216
-10 -25 -14 -25 -56 0 -70 11 -5 33 -10 50 -10 l31 0 0 -59 0 -58 -82 -7
c-321 -27 -584 -181 -756 -445 -94 -142 -141 -288 -149 -453 l-6 -118 -66 0
c-106 0 -167 -43 -177 -126 -7 -55 21 -103 76 -131 40 -21 59 -23 186 -23
l142 0 -5 -39 c-10 -73 8 -99 145 -217 113 -97 155 -134 282 -248 19 -17 103
-92 185 -166 83 -73 179 -161 215 -195 36 -33 94 -86 129 -118 64 -57 65 -58
43 -73 -20 -14 -22 -23 -22 -118 l0 -103 -147 -17 c-82 -10 -292 -35 -468 -56
-176 -21 -493 -60 -705 -85 -212 -25 -509 -61 -660 -80 -151 -18 -277 -32
-279 -29 -6 5 17 279 35 419 48 378 150 762 304 1145 48 118 182 398 228 476
16 28 45 78 62 110 55 101 241 373 339 499 548 698 1260 1216 2074 1509 314
113 671 197 1008 236 187 21 235 26 317 28 49 2 52 1 48 -20z m749 -9 c105
-11 226 -28 269 -37 l80 -17 158 -435 c87 -239 158 -439 158 -445 0 -10 -104
-75 -120 -75 -8 0 -58 59 -461 540 -85 102 -212 253 -282 335 -70 83 -127 153
-127 157 0 9 67 4 325 -23z m-169 -294 c87 -104 216 -260 288 -345 71 -85 164
-195 205 -245 42 -49 92 -109 113 -132 21 -24 38 -46 38 -50 0 -5 -18 -28 -40
-53 -22 -25 -40 -48 -40 -52 0 -22 -17 -12 -538 290 -61 36 -116 70 -121 76
-4 6 -16 79 -25 161 -10 83 -29 241 -42 351 -13 111 -24 206 -24 210 0 11 4 6
186 -211z m784 180 c128 -35 260 -74 271 -81 5 -3 9 -151 9 -349 l0 -343 -71
-12 c-39 -7 -72 -10 -75 -8 -2 3 -17 40 -33 84 -16 43 -66 180 -111 304 -45
124 -100 274 -121 333 l-39 109 42 -7 c24 -4 81 -17 128 -30z m512 -166 c136
-54 178 -82 178 -121 0 -18 -165 -490 -177 -507 -1 -2 -36 2 -78 9 l-75 13 0
328 c0 210 4 329 10 329 5 0 69 -23 142 -51z m432 -197 c82 -42 148 -81 147
-87 -1 -5 -85 -110 -187 -232 l-185 -221 -55 33 c-31 19 -61 36 -66 37 -9 3
182 548 192 548 3 -1 72 -35 154 -78z m419 -245 c75 -50 137 -94 137 -97 0 -5
-148 -94 -319 -191 -25 -14 -102 -58 -170 -98 -68 -39 -127 -70 -130 -69 -4 2
-28 26 -54 54 l-47 51 196 236 197 236 26 -16 c14 -9 88 -57 164 -106z m330
-237 c137 -110 292 -249 285 -255 -7 -8 -962 -175 -995 -175 -13 0 -23 17 -40
68 -11 37 -20 68 -20 68 1 1 126 72 277 159 151 87 295 170 320 186 25 16 52
29 60 29 8 0 59 -36 113 -80z m-2397 -48 c82 -48 211 -123 287 -166 75 -43
137 -81 137 -84 0 -4 -10 -36 -22 -72 l-23 -66 -105 18 c-284 50 -383 68 -391
74 -5 3 -9 20 -9 37 0 18 -9 102 -20 187 -11 85 -20 156 -20 158 0 9 34 -8
166 -86z m1159 23 c228 -58 392 -230 440 -460 48 -233 -66 -487 -275 -612
-158 -95 -386 -103 -556 -18 -247 122 -373 399 -304 669 28 110 63 169 155
262 87 88 162 132 271 158 79 19 196 19 269 1z m1624 -329 c33 -18 142 -131
273 -287 102 -121 240 -301 234 -306 -1 -2 -52 6 -112 17 -60 10 -226 40 -369
65 -914 160 -1108 195 -1114 200 -2 3 -4 37 -4 77 l0 72 79 14 c111 19 549 96
739 131 185 34 235 37 274 17z m-2609 -129 l185 -32 3 -77 c2 -43 -1 -78 -6
-78 -5 0 -94 -16 -198 -35 -103 -19 -198 -35 -209 -35 -20 0 -23 9 -38 138
-10 75 -17 143 -17 151 0 16 5 15 280 -32z m-2940 -47 l0 -60 -56 0 -55 0 2
53 c1 28 4 55 6 60 2 4 26 7 54 7 l49 0 0 -60z m209 -150 c301 -38 562 -223
694 -493 67 -136 111 -364 80 -414 l-13 -23 -1018 0 c-840 0 -1021 2 -1037 14
-16 12 -18 23 -12 105 9 117 29 194 77 298 135 289 410 483 730 516 82 9 422
6 499 -3z m2960 -140 c13 -39 22 -72 20 -74 -4 -3 -103 -61 -358 -208 -46 -26
-86 -47 -88 -45 -1 2 -11 75 -21 161 -12 108 -15 159 -8 161 19 5 401 73 416
74 10 1 23 -22 39 -69z m1476 36 c105 -19 309 -55 455 -81 146 -26 362 -64
480 -85 118 -21 285 -50 370 -65 85 -14 162 -28 170 -31 15 -4 120 -166 208
-319 89 -156 261 -531 293 -640 18 -61 -22 -115 -84 -115 -12 0 -38 10 -57 21
-19 12 -134 79 -255 149 -276 158 -602 347 -720 415 -699 404 -936 540 -1018
586 -67 38 -96 59 -93 69 3 8 12 35 21 60 9 25 18 51 20 58 6 16 -9 17 210
-22z m-1356 -239 c22 -27 41 -51 41 -55 0 -4 -35 -48 -78 -98 -42 -49 -142
-168 -222 -264 -80 -95 -162 -193 -182 -217 l-37 -43 -5 32 c-3 18 -15 112
-26 208 -11 96 -23 184 -25 195 -5 23 -6 22 289 192 100 57 186 102 192 101 6
-2 30 -25 53 -51z m1380 -123 c168 -97 358 -207 421 -244 63 -37 266 -154 450
-260 184 -106 371 -214 415 -240 44 -25 235 -136 425 -245 190 -109 348 -203
351 -207 16 -24 91 -337 118 -493 28 -162 71 -588 60 -599 -2 -2 -128 11 -279
29 -151 19 -320 39 -375 45 l-100 12 -85 101 c-46 56 -139 167 -207 247 -67
80 -265 316 -440 525 -175 209 -411 490 -524 625 -112 135 -288 344 -389 465
-101 121 -201 240 -222 264 l-37 43 46 54 c26 30 51 54 56 54 5 0 147 -79 316
-176z m-1210 -20 c34 -20 61 -41 61 -48 0 -6 -25 -78 -56 -161 -30 -82 -59
-161 -64 -175 -8 -23 -72 -202 -170 -470 -62 -170 -103 -284 -170 -468 -62
-171 -80 -199 -114 -186 -22 9 -25 22 -52 254 -13 118 -35 302 -49 409 l-24
194 202 241 c110 133 240 287 287 343 47 57 86 103 87 103 1 0 29 -16 62 -36z
m808 -56 c43 -51 136 -163 208 -248 71 -86 254 -303 405 -484 151 -180 302
-360 335 -400 33 -41 119 -143 190 -228 512 -608 538 -640 537 -672 0 -17 -9
-36 -18 -43 -28 -21 4 -24 -654 56 -179 22 -358 43 -397 47 -40 3 -79 12 -87
18 -8 6 -26 43 -40 81 -43 123 -99 279 -281 775 -97 267 -196 539 -220 605
-24 66 -61 170 -83 230 -22 61 -54 148 -71 194 -17 47 -28 87 -26 90 4 3 115
68 122 70 1 1 37 -41 80 -91z m-235 -148 c54 -148 109 -298 171 -470 25 -69
86 -235 135 -370 254 -697 344 -951 340 -956 -3 -3 -57 2 -119 10 -63 9 -213
27 -334 41 -121 14 -259 30 -308 36 l-87 12 2 906 3 906 64 7 c35 4 66 10 69
13 10 9 17 -6 64 -135z m-289 113 c11 -7 9 -1612 -3 -1652 -11 -39 -51 -86
-92 -107 -39 -20 -115 -18 -368 12 -223 27 -225 27 -257 58 l-32 31 60 165
c34 91 79 213 100 273 21 59 57 155 78 215 191 527 354 972 363 995 11 28 11
28 77 21 36 -3 69 -8 74 -11z m-1403 -569 c104 -732 101 -703 86 -738 -22 -53
-57 -68 -176 -76 -58 -4 -106 -7 -106 -6 -1 1 15 123 36 271 21 149 55 397 76
552 21 155 39 281 41 280 1 -2 21 -129 43 -283z m-1132 120 c24 -16 28 -44 12
-75 -11 -19 -35 -19 -1273 -19 -969 0 -1266 3 -1275 12 -18 18 -15 69 6 84 14
11 243 13 1262 14 1111 0 1248 -2 1268 -16z m-1964 -336 c36 -83 65 -153 63
-155 -9 -8 -257 221 -257 238 0 10 5 30 12 44 10 22 17 25 63 25 l52 0 67
-152z m1181 138 c38 -28 24 -71 -76 -245 l-95 -165 -84 -27 -85 -28 -218 82
c-256 96 -215 51 -354 385 -8 19 886 18 912 -2z m319 -2 c14 -36 6 -58 -127
-345 l-35 -75 -4 -190 c-4 -207 -9 -225 -67 -277 -28 -25 -31 -33 -31 -88 l0
-61 -167 4 c-135 2 -174 6 -198 20 -16 9 -89 70 -161 135 -486 438 -490 441
-511 490 -72 164 -163 375 -163 379 0 2 33 4 73 4 l73 0 34 -77 c71 -168 112
-259 121 -270 17 -20 473 -194 506 -192 10 0 63 15 118 32 l100 32 48 80 c26
44 91 155 144 248 l96 167 73 0 c56 0 73 -3 78 -16z m1729 -829 c398 -82 680
-394 727 -802 25 -219 -52 -471 -201 -658 -112 -141 -296 -259 -479 -307 -120
-32 -319 -32 -440 0 -304 79 -558 320 -645 612 -82 273 -38 550 124 789 98
143 281 281 447 335 143 47 331 59 467 31z m-1943 -324 l0 -39 -62 -7 c-81 -8
-386 -44 -415 -49 -22 -3 -23 0 -23 65 l0 69 250 0 250 0 0 -39z m2794 -31
c169 -21 678 -82 1246 -150 184 -22 502 -60 705 -85 204 -24 523 -63 710 -85
1530 -182 1794 -216 1750 -223 -22 -4 -152 -21 -290 -37 -137 -17 -416 -51
-620 -75 -400 -49 -814 -99 -1405 -170 -839 -102 -1148 -139 -2022 -245 -141
-18 -263 -30 -271 -28 -10 2 -1 25 33 86 26 45 58 116 71 157 13 45 29 77 38
79 9 3 138 21 286 41 149 20 416 56 595 81 179 24 379 51 445 60 66 9 128 21
138 26 21 11 22 41 2 58 -8 7 -90 23 -182 36 -170 24 -638 89 -1033 145 -118
16 -227 32 -241 35 -23 4 -29 14 -44 67 -18 63 -56 150 -95 212 l-22 35 22 0
c12 0 95 -9 184 -20z m-1924 -8 c28 -23 29 -58 2 -114 -11 -24 -28 -70 -38
-103 -10 -33 -19 -61 -19 -62 -2 -4 -918 -135 -1280 -183 -188 -25 -215 -33
-215 -66 0 -33 18 -39 155 -58 66 -8 269 -36 450 -61 182 -24 431 -58 555 -75
124 -16 242 -35 263 -42 37 -11 97 -69 97 -93 0 -16 77 -172 101 -206 l20 -29
-26 0 c-15 0 -135 13 -268 30 -399 49 -1228 150 -2727 330 -184 23 -499 61
-700 85 -201 25 -480 58 -620 75 -140 17 -271 33 -290 37 -39 7 307 51 1750
223 190 23 509 61 710 85 888 107 1066 128 1410 170 201 24 417 50 480 58 157
20 165 20 190 -1z m-85 -528 l0 -155 -30 5 c-16 3 -145 21 -285 40 -651 89
-774 106 -777 109 -1 2 133 23 300 46 166 24 401 58 522 76 121 18 231 33 245
34 l25 1 0 -156z m2222 122 c131 -19 374 -54 540 -77 167 -23 301 -44 300 -46
-2 -2 -118 -19 -258 -38 -140 -19 -386 -53 -548 -76 -161 -22 -294 -39 -296
-37 -1 2 1 30 6 63 5 33 7 102 3 153 -4 62 -2 92 5 92 6 0 117 -15 248 -34z
m3823 -283 c0 -65 -24 -335 -41 -473 -71 -579 -230 -1106 -490 -1629 -254
-511 -544 -916 -939 -1311 -246 -247 -433 -403 -741 -619 -35 -24 -138 -89
-229 -143 -514 -308 -1019 -503 -1630 -629 -196 -41 -588 -86 -775 -90 l-80
-2 2 29 c2 16 9 83 18 149 8 65 15 133 15 151 l0 32 103 7 c144 9 436 42 537
61 259 48 587 135 765 203 44 17 83 31 87 31 33 0 546 241 646 304 20 12 42
25 48 27 35 13 315 199 448 298 898 672 1519 1622 1771 2711 59 254 93 488
111 765 4 58 7 105 8 106 3 3 289 37 324 38 34 1 42 -2 42 -16z m-9860 -6
l105 -12 3 -60 c7 -165 47 -481 82 -660 158 -789 478 -1466 993 -2095 124
-151 432 -464 577 -585 192 -163 541 -408 692 -490 13 -7 66 -36 118 -64 368
-202 799 -362 1225 -455 205 -44 312 -61 510 -81 189 -19 224 -27 265 -61 44
-37 60 -75 60 -139 0 -69 -19 -107 -72 -145 -37 -27 -48 -30 -122 -30 -119 0
-441 41 -626 79 -474 98 -828 217 -1245 421 -210 103 -491 264 -620 356 -33
24 -87 62 -120 86 -428 305 -863 746 -1171 1188 -384 550 -647 1149 -794 1809
-78 347 -133 839 -101 899 29 54 58 59 241 39z m9371 -66 c25 -26 29 -37 29
-85 0 -85 -38 -397 -65 -531 -42 -209 -54 -261 -99 -418 -135 -465 -312 -851
-572 -1249 -165 -253 -290 -412 -487 -623 -386 -414 -810 -733 -1297 -979
-551 -278 -1181 -453 -1741 -483 -164 -8 -156 -27 -118 287 29 246 85 712 159
1325 22 182 60 501 85 710 25 209 63 529 85 710 22 182 53 442 70 579 l29 250
39 38 38 39 314 39 c173 21 466 57 650 79 184 22 504 61 710 86 206 25 524 64
705 85 668 81 1083 132 1220 149 204 27 211 26 246 -8z m-8867 3 c72 -8 295
-35 496 -59 201 -25 514 -63 695 -85 182 -21 499 -60 705 -85 206 -25 526 -63
710 -86 184 -22 476 -58 648 -79 l313 -39 33 -34 33 -35 37 -303 c21 -167 55
-450 76 -629 22 -179 60 -494 85 -700 25 -206 63 -521 85 -700 66 -547 131
-1084 159 -1318 15 -123 25 -225 22 -227 -18 -11 -441 35 -616 66 -877 159
-1683 563 -2331 1171 -682 639 -1151 1452 -1353 2348 -49 216 -65 311 -87 515
-17 159 -17 160 3 207 15 34 32 52 60 67 47 25 62 25 227 5z m3855 -648 c40
-21 102 -46 137 -57 35 -11 64 -23 64 -26 0 -3 16 -124 36 -267 93 -680 124
-911 140 -1036 9 -74 21 -145 25 -157 9 -26 50 -32 67 -10 5 6 19 84 31 172
12 88 42 300 66 470 24 171 58 411 75 535 18 132 38 239 48 259 10 20 32 41
52 51 19 9 86 42 148 73 113 55 113 56 108 29 -3 -15 -14 -106 -26 -202 -11
-96 -40 -341 -65 -545 -24 -203 -63 -523 -85 -710 -22 -187 -60 -504 -85 -705
-24 -201 -62 -520 -85 -710 -104 -875 -211 -1754 -214 -1757 -1 -1 -19 138
-40 310 -93 767 -129 1064 -166 1372 -61 500 -126 1044 -170 1405 -22 179 -60
496 -85 705 -25 209 -59 489 -75 621 -17 133 -30 245 -30 249 0 3 12 -2 28
-13 15 -11 60 -36 101 -56z m595 -116 c-2 -8 -19 -130 -39 -270 -83 -599 -107
-766 -114 -789 -4 -14 -21 79 -45 255 -57 426 -105 777 -109 799 -3 19 2 20
153 20 134 0 156 -2 154 -15z"/>
<path d="M5227 10713 c-14 -13 -6 -53 12 -63 12 -6 132 -10 320 -10 263 0 302
2 316 16 9 9 15 26 13 38 -3 21 -5 21 -329 24 -179 1 -328 -1 -332 -5z"/>
<path d="M4862 10508 c-29 -29 -7 -78 35 -78 35 0 52 43 28 70 -20 23 -45 26
-63 8z"/>
<path d="M5684 10365 l-38 -105 -342 0 c-340 0 -343 0 -349 -21 -10 -30 2
-113 115 -852 45 -295 41 -292 380 -292 219 0 237 1 270 21 44 25 77 83 85
148 6 49 47 322 115 765 23 156 28 206 19 217 -8 10 -37 14 -105 14 -105 0
-102 -3 -75 75 l18 50 108 3 c62 1 115 8 122 14 8 6 13 23 11 37 l-3 26 -146
3 -147 3 -38 -106z m-77 -220 l-10 -35 -279 0 -278 0 0 35 0 35 289 0 289 0
-11 -35z m249 13 c-3 -13 -6 -29 -6 -35 0 -9 -24 -13 -84 -13 l-84 0 11 35 10
35 80 0 c77 0 79 -1 73 -22z m-26 -151 c0 -13 -4 -48 -9 -78 -5 -30 -14 -94
-21 -144 -17 -132 -13 -126 -60 -103 -48 24 -91 19 -144 -17 -23 -15 -38 -20
-42 -13 -4 5 -27 19 -51 30 -53 23 -94 19 -146 -16 -35 -24 -36 -24 -53 -5
-35 39 -118 46 -170 13 -21 -13 -22 -11 -43 122 -19 118 -20 137 -7 162 15 29
42 56 66 65 8 3 165 6 348 6 l332 1 0 -23z m-89 -423 c22 -24 23 -26 10 -117
-23 -162 -13 -147 -92 -147 -38 0 -69 3 -69 8 1 48 20 231 26 246 8 22 59 45
85 39 9 -3 28 -16 40 -29z m-476 6 c18 -19 33 -120 34 -227 l1 -43 -70 0 c-38
0 -70 3 -70 8 0 4 -7 48 -15 97 -19 117 -19 127 6 159 26 33 86 37 114 6z
m235 0 c22 -22 25 -76 13 -202 l-6 -68 -62 0 -62 0 -7 115 c-9 146 3 175 72
175 19 0 40 -8 52 -20z m210 -367 c0 -4 -7 -15 -17 -25 -15 -16 -36 -18 -245
-18 -215 0 -229 1 -248 20 -11 11 -20 23 -20 28 0 4 119 6 265 4 146 -1 265
-6 265 -9z"/>
<path d="M4056 10134 c-19 -19 -20 -25 -3 -47 11 -16 40 -17 332 -15 l320 3 3
29 c2 16 -2 32 -10 37 -7 5 -151 9 -320 9 -265 0 -309 -2 -322 -16z"/>
<path d="M3746 9934 c-18 -17 -19 -24 -10 -48 5 -14 53 -16 435 -16 l429 0 6
25 c14 56 18 55 -432 55 -362 0 -415 -2 -428 -16z"/>
<path d="M5560 8861 c-12 -24 -4 -48 21 -61 27 -15 37 -12 54 14 13 19 14 29
5 45 -14 28 -65 29 -80 2z"/>
<path d="M2378 8099 c-36 -21 -16 -79 27 -79 42 0 59 44 29 74 -18 18 -32 20
-56 5z"/>
<path d="M2388 7763 c-26 -7 -33 -41 -12 -64 16 -18 32 -19 216 -19 118 0 207
4 219 10 25 14 25 56 0 70 -19 10 -387 13 -423 3z"/>
<path d="M5126 7687 c-11 -8 -17 -23 -14 -38 l3 -24 214 -3 c218 -2 230 -1
231 35 0 6 -7 19 -16 27 -13 13 -46 16 -208 16 -142 0 -197 -3 -210 -13z"/>
<path d="M3020 7590 c-25 -25 -25 -35 -1 -59 23 -23 57 -18 71 10 12 22 4 46
-21 59 -24 13 -26 13 -49 -10z"/>
<path d="M2082 7588 c-16 -16 -15 -43 2 -57 9 -8 104 -11 326 -9 285 3 314 5
324 21 8 12 8 22 0 35 -10 15 -39 17 -325 20 -237 2 -318 -1 -327 -10z"/>
<path d="M4954 7526 c-3 -8 -4 -25 -2 -38 l3 -23 212 -3 c204 -2 212 -2 223
18 8 14 8 26 0 40 -10 19 -21 20 -221 20 -172 0 -211 -3 -215 -14z"/>
<path d="M5522 7278 c-7 -7 -12 -21 -12 -33 0 -12 5 -26 12 -33 7 -7 21 -12
33 -12 12 0 26 5 33 12 7 7 12 21 12 33 0 12 -5 26 -12 33 -7 7 -21 12 -33 12
-12 0 -26 -5 -33 -12z"/>
<path d="M2742 7228 c-7 -7 -12 -19 -12 -28 0 -39 10 -40 447 -40 l423 0 6 25
c14 56 18 55 -435 55 -311 0 -420 -3 -429 -12z"/>
<path d="M2396 7034 c-19 -19 -20 -25 -3 -47 11 -16 40 -17 327 -15 l315 3 3
23 c8 51 3 52 -324 52 -262 0 -305 -2 -318 -16z"/>
<path d="M6361 7058 c-5 -13 -18 -66 -30 -118 -54 -231 -186 -394 -391 -484
-119 -53 -120 -81 -6 -128 202 -83 345 -257 396 -484 23 -104 41 -144 65 -144
27 0 43 30 64 127 57 250 201 424 421 508 77 29 84 36 76 68 -4 16 -23 29 -73
47 -147 55 -280 171 -351 307 -25 48 -51 122 -68 188 -15 61 -31 116 -37 123
-16 21 -57 15 -66 -10z m49 -231 c0 -24 82 -172 122 -222 55 -66 144 -143 212
-180 l55 -31 -80 -48 c-119 -73 -207 -172 -275 -310 -30 -61 -54 -103 -54 -94
0 30 -89 193 -137 251 -55 66 -138 137 -200 169 -24 13 -43 25 -43 28 1 3 29
22 63 43 120 74 215 180 278 311 22 44 39 86 39 94 0 7 5 10 10 7 6 -3 10 -12
10 -18z"/>
<path d="M10673 6118 c-6 -7 -16 -35 -23 -63 -17 -65 -59 -118 -115 -145 -25
-12 -47 -26 -51 -31 -12 -20 8 -47 47 -64 57 -26 102 -83 122 -155 16 -55 19
-60 45 -60 29 0 52 30 52 66 0 23 35 87 62 111 12 11 41 29 63 40 51 23 58 54
18 79 -73 45 -91 59 -110 89 -12 18 -27 52 -33 76 -14 52 -26 69 -50 69 -10 0
-22 -6 -27 -12z m72 -216 l38 -43 -22 -16 c-13 -8 -30 -28 -40 -44 l-17 -28
-41 48 -41 47 34 34 c19 18 34 37 34 42 0 16 14 5 55 -40z"/>
<path d="M9330 5879 c-57 -17 -113 -61 -147 -119 -28 -46 -33 -63 -33 -120 0
-110 55 -194 155 -236 40 -17 122 -18 162 -3 31 12 12 29 290 -266 l132 -140
0 -295 0 -295 -180 -79 -180 -80 3 -30 3 -31 380 -3 c209 -1 390 0 403 3 25 6
31 45 10 63 -16 12 -305 142 -318 142 -5 0 -15 7 -23 15 -12 12 -15 63 -16
295 l-2 280 63 67 c34 38 166 178 292 312 127 134 237 252 244 262 10 14 10
24 2 39 -10 20 -20 20 -471 20 -429 0 -460 1 -465 18 -23 76 -78 140 -146 170
-40 17 -118 22 -158 11z m148 -99 c34 -21 75 -78 66 -92 -3 -4 -56 -8 -118 -8
-163 0 -172 -15 -66 -124 39 -40 70 -76 70 -81 0 -4 -22 -5 -50 -3 -89 9 -150
78 -150 171 0 118 146 199 248 137z m952 -186 c0 -3 -23 -30 -51 -60 l-52 -54
-246 0 c-246 0 -271 -3 -271 -34 1 -38 15 -41 229 -46 l209 -5 -157 -164 -156
-164 -90 94 -89 94 38 5 c25 3 44 13 53 27 13 19 12 24 -5 41 -16 16 -35 20
-98 21 l-78 1 -105 111 c-58 62 -110 118 -114 125 -7 12 72 14 488 14 272 0
495 -3 495 -6z m-409 -1332 c-44 -1 -119 -1 -167 0 l-86 3 83 35 84 35 83 -35
83 -35 -80 -3z"/>
<path d="M8572 5668 c-32 -32 4 -87 48 -73 25 8 37 50 20 70 -15 18 -51 20
-68 3z"/>
<path d="M7250 5550 c-8 -14 -8 -26 0 -40 10 -19 21 -20 305 -20 284 0 295 1
305 20 8 14 8 26 0 40 -10 19 -21 20 -305 20 -284 0 -295 -1 -305 -20z"/>
<path d="M7522 5317 c-7 -7 -13 -66 -14 -133 l-3 -119 -107 -3 c-106 -3 -108
-3 -114 -28 -15 -57 47 -172 116 -218 22 -15 64 -33 93 -40 l52 -13 7 -114 c5
-65 19 -157 33 -213 14 -55 28 -125 32 -157 6 -63 8 -61 -72 -74 -68 -12 -236
-55 -308 -80 -166 -58 -262 -150 -294 -280 -13 -52 -14 -75 -5 -117 16 -79 49
-161 88 -218 l35 -51 -21 -44 c-38 -79 -31 -121 44 -251 l66 -114 -35 -53
c-52 -78 -72 -183 -57 -300 19 -155 87 -259 205 -313 l62 -29 455 0 455 0 67
33 c36 18 82 51 103 73 100 111 133 318 74 474 -28 77 -101 148 -214 209 -110
60 -153 92 -176 130 l-18 30 34 38 c28 31 35 46 35 81 0 46 -27 99 -58 116
-14 8 -22 26 -27 67 -11 93 -67 226 -105 249 -6 4 -10 69 -10 175 l0 170 28 6
c69 15 203 59 259 84 66 30 146 97 169 142 8 16 32 35 58 47 68 30 78 58 74
208 l-3 125 -42 36 c-42 37 -43 37 -45 112 -3 70 -5 75 -26 78 -41 6 -52 -14
-52 -92 0 -69 -1 -72 -35 -99 -45 -36 -58 -87 -53 -203 3 -82 7 -95 33 -130
l29 -37 -55 -51 c-39 -36 -77 -59 -129 -79 -83 -32 -197 -64 -204 -57 -5 6 6
62 33 165 12 44 25 131 29 194 l7 114 54 14 c96 24 167 92 198 191 25 80 18
86 -108 92 l-104 5 -3 119 c-1 67 -7 126 -14 133 -8 10 -66 13 -258 13 -192 0
-250 -3 -258 -13z m448 -162 l0 -95 -190 0 -190 0 0 95 0 95 190 0 190 0 0
-95z m210 -189 c0 -23 -49 -75 -94 -99 -39 -21 -52 -22 -306 -22 -240 0 -268
2 -300 19 -46 24 -78 54 -96 89 l-15 27 406 0 c344 0 405 -2 405 -14z m258
-188 c8 -8 12 -47 12 -109 0 -88 -2 -99 -21 -113 -16 -11 -27 -12 -44 -4 -22
10 -24 18 -27 95 -4 113 4 143 40 143 16 0 33 -5 40 -12z m-513 -28 c11 -17
-15 -255 -35 -317 -10 -34 -22 -85 -26 -113 -5 -40 -11 -51 -28 -55 -74 -17
-112 -25 -122 -25 -6 0 -14 26 -17 59 -4 32 -18 102 -31 155 -14 52 -28 143
-32 201 l-7 105 146 0 c82 0 148 -4 152 -10z m-71 -622 c3 -29 6 -95 6 -145
l0 -93 -80 0 -81 0 3 132 3 133 55 11 c89 19 86 20 94 -38z m-234 -126 l0
-127 -35 -52 c-45 -68 -71 -134 -80 -208 -7 -50 -13 -63 -46 -95 -35 -33 -39
-42 -39 -84 0 -54 12 -82 47 -112 l25 -20 -25 -30 c-14 -16 -27 -27 -29 -24
-3 3 -26 43 -53 90 -76 135 -110 162 -201 161 -61 0 -67 6 -122 115 -103 205
-28 352 223 439 80 27 270 73 313 74 22 1 22 -1 22 -127z m308 -260 c24 -44
36 -80 39 -122 l6 -60 -192 0 -191 0 0 44 c0 53 19 110 56 165 l27 42 110 -3
110 -3 35 -63z m117 -278 c23 -23 15 -66 -15 -81 -18 -9 -89 -13 -250 -13
-245 0 -273 5 -278 51 -7 56 6 59 278 59 216 0 251 -2 265 -16z m-816 -49 c19
-9 47 -47 85 -114 31 -54 56 -103 56 -108 -1 -8 -150 -97 -155 -91 -1 2 -28
48 -59 102 -71 126 -73 175 -8 210 34 19 46 19 81 1z m779 -164 c32 -57 106
-119 201 -171 150 -80 202 -144 216 -266 7 -68 -7 -168 -34 -229 -22 -49 -70
-98 -125 -128 -41 -22 -46 -22 -481 -22 -481 0 -469 -1 -550 60 -91 70 -129
291 -72 426 20 48 89 107 186 159 95 50 177 120 206 174 l20 36 205 0 206 0
22 -39z"/>
<path d="M8264 5316 c-3 -8 -4 -25 -2 -38 l3 -23 430 0 430 0 3 23 c8 53 12
52 -440 52 -353 0 -419 -2 -424 -14z"/>
<path d="M8820 5096 c-6 -8 -10 -25 -8 -38 l3 -23 269 -3 c271 -2 296 0 296
34 0 7 -7 20 -16 28 -22 23 -525 24 -544 2z"/>
<path d="M10142 4958 c-7 -7 -12 -19 -12 -28 0 -37 19 -40 240 -40 155 0 219
3 228 12 17 17 15 55 -4 62 -31 12 -439 7 -452 -6z"/>
<path d="M10282 4774 c-26 -18 -28 -37 -6 -58 13 -13 41 -16 155 -16 78 0 149
5 160 10 20 11 26 54 8 65 -5 4 -74 9 -152 11 -118 3 -146 1 -165 -12z"/>
<path d="M9346 4717 c-8 -7 -26 -41 -38 -77 -23 -63 -24 -65 -67 -74 -127 -27
-180 -189 -91 -281 31 -32 31 -34 19 -74 l-12 -41 -348 0 c-191 0 -354 -3
-363 -6 -23 -9 -20 -48 13 -219 17 -83 53 -271 81 -420 28 -148 56 -275 62
-282 8 -10 77 -13 304 -13 l294 0 10 24 c5 13 25 111 45 218 20 106 57 297 81
425 54 275 54 273 -36 273 l-59 0 10 30 c8 23 17 30 36 30 36 0 89 28 118 62
56 67 52 163 -10 225 l-32 32 22 68 c23 69 21 95 -9 106 -8 3 -21 0 -30 -6z
m-17 -253 c77 -64 3 -182 -90 -144 -36 15 -49 37 -49 82 0 78 79 113 139 62z
m-208 -396 c-7 -20 -17 -24 -87 -29 -43 -3 -116 -18 -162 -33 -91 -29 -176
-33 -263 -15 -59 13 -89 38 -89 74 l0 25 305 0 304 0 -8 -22z m161 17 c2 -3 3
-19 0 -35 -4 -29 -6 -30 -41 -24 -46 8 -46 9 -33 39 8 18 19 25 40 25 16 0 31
-2 34 -5z m-192 -144 c0 -44 62 -52 75 -10 6 18 12 20 43 14 21 -4 40 -10 44
-13 3 -4 -7 -74 -22 -157 -16 -82 -34 -179 -40 -215 -7 -36 -14 -75 -17 -88
l-5 -22 -266 2 -266 3 -12 65 c-7 36 -27 139 -44 229 -17 90 -29 165 -26 168
2 2 21 0 43 -6 74 -21 200 -13 308 19 121 35 185 39 185 11z m55 -581 c3 -6 3
-19 0 -30 -6 -20 -14 -20 -243 -18 l-237 3 -3 28 -3 27 240 0 c150 0 242 -4
246 -10z"/>
<path d="M8667 3594 c-16 -16 -6 -35 16 -32 12 2 22 10 22 18 0 16 -26 25 -38
14z"/>
<path d="M8878 4709 c-25 -14 -24 -65 2 -79 49 -26 87 43 42 78 -19 14 -22 14
-44 1z"/>
<path d="M7212 4528 c-30 -30 -3 -82 40 -76 29 4 47 50 28 72 -15 19 -51 21
-68 4z"/>
<path d="M9736 3794 c-9 -8 -16 -22 -16 -29 0 -7 7 -21 16 -29 30 -30 74 -13
74 29 0 42 -44 59 -74 29z"/>
<path d="M6830 2196 c-6 -8 -10 -25 -8 -38 3 -23 4 -23 158 -23 154 0 155 0
158 23 7 46 -10 52 -158 52 -108 0 -140 -3 -150 -14z"/>
<path d="M6708 2015 c-8 -19 -8 -28 2 -40 19 -23 701 -23 720 0 10 12 10 21 2
40 l-12 25 -350 0 -350 0 -12 -25z"/>
<path d="M2050 5870 c-23 -43 17 -83 60 -60 22 12 27 49 8 68 -19 19 -56 14
-68 -8z"/>
<path d="M2466 5872 c-3 -5 -17 -45 -31 -89 -28 -90 -66 -136 -151 -182 -38
-20 -49 -31 -49 -51 0 -20 10 -30 55 -52 88 -44 129 -101 160 -225 7 -28 17
-44 31 -48 30 -10 47 12 65 80 26 99 65 147 156 194 76 40 73 61 -15 115 -75
46 -120 102 -137 170 -6 23 -16 52 -23 66 -13 25 -50 39 -61 22z m124 -294
l30 -24 -47 -44 c-25 -25 -54 -58 -64 -74 l-17 -28 -15 29 c-9 16 -36 48 -61
71 l-46 42 40 36 c22 20 49 51 61 70 l21 34 34 -44 c18 -24 47 -55 64 -68z"/>
<path d="M3186 5694 c-30 -30 -13 -74 29 -74 44 0 63 60 26 80 -27 14 -37 13
-55 -6z"/>
<path d="M4155 5584 c-196 -30 -310 -63 -450 -129 -323 -154 -581 -436 -703
-771 -62 -169 -76 -251 -76 -464 -1 -214 7 -277 56 -429 123 -387 424 -713
797 -863 51 -21 141 -50 200 -65 99 -26 119 -28 316 -28 232 0 292 9 460 70
371 134 669 415 816 769 36 85 33 111 -12 111 -19 0 -36 -18 -80 -85 -149
-222 -351 -378 -589 -454 -148 -48 -234 -60 -397 -53 -465 17 -860 315 -1012
762 -38 114 -51 198 -51 350 0 204 27 318 115 500 139 287 416 508 736 587
133 33 392 33 520 0 48 -12 94 -22 103 -22 18 0 38 33 31 52 -13 34 -201 107
-360 139 -97 20 -348 34 -420 23z m229 -82 c3 -5 -29 -14 -70 -21 -107 -18
-183 -44 -309 -106 -130 -65 -200 -116 -313 -228 -381 -376 -459 -978 -187
-1442 60 -102 97 -151 178 -234 229 -237 528 -363 857 -363 239 0 481 72 660
197 77 53 77 50 5 -24 -228 -234 -565 -371 -910 -371 -613 0 -1141 432 -1272
1042 -24 112 -24 409 1 516 40 178 124 370 218 497 230 310 556 497 938 538
70 8 199 7 204 -1z"/>
<path d="M5223 5398 c-5 -7 -17 -47 -27 -88 -33 -146 -122 -258 -253 -321 -90
-43 -97 -78 -20 -105 119 -41 231 -169 266 -302 6 -23 16 -60 21 -81 6 -21 17
-42 26 -45 32 -12 52 12 69 88 33 152 122 270 242 322 86 37 88 39 91 68 3 21
-2 28 -25 37 -109 40 -210 122 -256 207 -15 28 -36 85 -47 128 -11 42 -25 83
-31 90 -14 17 -44 18 -56 2z m127 -351 c24 -27 65 -63 92 -81 l49 -33 -50 -32
c-59 -38 -131 -120 -162 -184 -13 -26 -25 -47 -28 -47 -4 1 -17 24 -31 51 -30
63 -85 126 -150 174 l-50 37 60 44 c64 47 106 98 147 179 l26 49 27 -54 c15
-30 47 -77 70 -103z"/>
<path d="M2420 4886 c-28 -34 11 -93 47 -70 32 20 39 41 19 63 -22 24 -49 27
-66 7z"/>
<path d="M4248 4888 c-9 -7 -26 -47 -38 -88 -18 -63 -30 -82 -71 -123 -27 -26
-63 -50 -79 -54 -64 -12 -66 -70 -3 -92 20 -8 60 -37 88 -65 45 -45 54 -60 70
-125 13 -55 23 -74 39 -80 34 -13 45 -2 62 58 33 113 81 173 172 213 37 17 43
23 40 45 -2 21 -15 33 -56 54 -30 15 -63 36 -74 46 -31 28 -65 93 -79 148 -10
44 -30 75 -49 75 -3 0 -13 -6 -22 -12z m37 -197 c3 -10 28 -40 55 -67 l49 -48
-43 -40 c-23 -23 -50 -52 -60 -66 l-17 -25 -17 25 c-9 14 -35 44 -59 66 l-43
42 32 25 c18 13 44 43 58 66 28 45 36 49 45 22z"/>
<path d="M3682 4388 c-18 -18 -15 -43 8 -63 17 -15 24 -16 45 -7 43 20 28 82
-20 82 -12 0 -26 -5 -33 -12z"/>
<path d="M4830 4330 c-15 -29 -3 -59 26 -66 30 -8 54 11 54 40 0 46 -59 64
-80 26z"/>
<path d="M5508 4244 c-14 -31 -1 -57 31 -62 28 -4 51 14 51 42 0 50 -62 65
-82 20z"/>
<path d="M4396 3794 c-9 -8 -16 -22 -16 -29 0 -7 7 -21 16 -29 30 -30 74 -13
74 29 0 42 -44 59 -74 29z"/>
<path d="M5661 3244 c-26 -19 -27 -46 -1 -69 39 -35 92 17 62 61 -13 19 -39
23 -61 8z"/>
<path d="M5273 2918 c-6 -7 -16 -35 -22 -63 -14 -55 -48 -120 -79 -148 -11
-10 -44 -31 -74 -46 -41 -21 -54 -33 -56 -54 -3 -22 3 -28 41 -45 91 -40 153
-121 172 -224 9 -45 27 -62 59 -54 19 5 26 16 36 58 25 105 84 182 167 215 43
18 63 48 48 72 -3 6 -31 22 -60 37 -69 32 -121 92 -141 163 -27 93 -32 101
-58 101 -13 0 -28 -6 -33 -12z m94 -254 c16 -17 38 -36 48 -42 19 -10 18 -13
-19 -43 -21 -18 -51 -49 -66 -70 l-27 -38 -32 45 c-18 24 -46 54 -62 66 l-29
22 49 51 c27 27 54 61 61 74 l12 23 18 -28 c10 -16 31 -43 47 -60z"/>
<path d="M4626 2464 c-30 -30 -13 -74 29 -74 42 0 59 44 29 74 -8 9 -22 16
-29 16 -7 0 -21 -7 -29 -16z"/>
<path d="M5805 2226 c-23 -34 -5 -66 35 -66 40 0 58 32 35 66 -8 13 -24 24
-35 24 -11 0 -27 -11 -35 -24z"/>
</g>
</svg>
